<svg width="32" height="32" viewBox="0 0 32 32" fill="none" xmlns="http://www.w3.org/2000/svg">
<path d="M17.88 16L23.6133 10.28C23.8644 10.0289 24.0055 9.68836 24.0055 9.3333C24.0055 8.97823 23.8644 8.6377 23.6133 8.38663C23.3623 8.13556 23.0217 7.99451 22.6667 7.99451C22.3116 7.99451 21.9711 8.13556 21.72 8.38663L16 14.12L10.28 8.38663C10.0289 8.13556 9.68841 7.99451 9.33334 7.99451C8.97827 7.99451 8.63775 8.13556 8.38668 8.38663C8.13561 8.6377 7.99455 8.97823 7.99455 9.3333C7.99455 9.68836 8.13561 10.0289 8.38668 10.28L14.12 16L8.38668 21.72C8.26171 21.8439 8.16251 21.9914 8.09482 22.1539C8.02713 22.3163 7.99228 22.4906 7.99228 22.6666C7.99228 22.8426 8.02713 23.0169 8.09482 23.1794C8.16251 23.3419 8.26171 23.4893 8.38668 23.6133C8.51063 23.7383 8.6581 23.8375 8.82057 23.9052C8.98305 23.9728 9.15733 24.0077 9.33334 24.0077C9.50936 24.0077 9.68363 23.9728 9.84611 23.9052C10.0086 23.8375 10.1561 23.7383 10.28 23.6133L16 17.88L21.72 23.6133C21.844 23.7383 21.9914 23.8375 22.1539 23.9052C22.3164 23.9728 22.4907 24.0077 22.6667 24.0077C22.8427 24.0077 23.017 23.9728 23.1794 23.9052C23.3419 23.8375 23.4894 23.7383 23.6133 23.6133C23.7383 23.4893 23.8375 23.3419 23.9052 23.1794C23.9729 23.0169 24.0077 22.8426 24.0077 22.6666C24.0077 22.4906 23.9729 22.3163 23.9052 22.1539C23.8375 21.9914 23.7383 21.8439 23.6133 21.72L17.88 16Z" fill="black"/>
</svg>
